<svg xmlns="http://www.w3.org/2000/svg" viewBox="0 0 720 500" role="img" aria-labelledby="title desc">
  <title id="title">Talo integrations</title><desc id="desc">Sanitized integration status cards for local AI agents.</desc>
  <rect width="720" height="500" rx="24" fill="#edf7f9"/><rect x="24" y="24" width="672" height="452" rx="20" fill="#fff" stroke="#c8dfe4"/>
  <text x="58" y="74" fill="#0a899e" font-family="ui-sans-serif,system-ui" font-size="14" font-weight="800" letter-spacing="2">LOCAL INTEGRATIONS</text><text x="58" y="115" fill="#142238" font-family="ui-sans-serif,system-ui" font-size="30" font-weight="800">One history across your agents</text><text x="58" y="146" fill="#687b8d" font-family="ui-sans-serif,system-ui" font-size="15">Thin adapters share one reviewed, platform-neutral core.</text>
  <g font-family="ui-sans-serif,system-ui"><rect x="58" y="182" width="286" height="108" rx="17" fill="#f8fcfd" stroke="#cfdfe3"/><rect x="78" y="203" width="48" height="48" rx="13" fill="#07131f"/><text x="94" y="237" fill="#eaffff" font-size="28" font-weight="800">C</text><text x="144" y="218" fill="#17263a" font-size="19" font-weight="750">Codex</text><text x="144" y="246" fill="#607587" font-size="14">Plugin + Skill</text><rect x="253" y="208" width="70" height="28" rx="14" fill="#dff7ee"/><text x="269" y="228" fill="#08765e" font-size="12" font-weight="750">READY</text><rect x="376" y="182" width="286" height="108" rx="17" fill="#f8fcfd" stroke="#cfdfe3"/><rect x="396" y="203" width="48" height="48" rx="13" fill="#16354a"/><text x="411" y="237" fill="#eaffff" font-size="26" font-weight="800">A</text><text x="462" y="218" fill="#17263a" font-size="19" font-weight="750">Antigravity</text><text x="462" y="246" fill="#607587" font-size="14">Global Skill</text><rect x="571" y="208" width="70" height="28" rx="14" fill="#dff7ee"/><text x="587" y="228" fill="#08765e" font-size="12" font-weight="750">READY</text><rect x="58" y="314" width="286" height="108" rx="17" fill="#f8fcfd" stroke="#cfdfe3"/><rect x="78" y="335" width="48" height="48" rx="13" fill="#965d39"/><text x="92" y="369" fill="#fff" font-size="25" font-weight="800">Cl</text><text x="144" y="350" fill="#17263a" font-size="19" font-weight="750">Claude Code</text><text x="144" y="378" fill="#607587" font-size="14">Plugin or user Skill</text><rect x="253" y="340" width="70" height="28" rx="14" fill="#dff7ee"/><text x="269" y="360" fill="#08765e" font-size="12" font-weight="750">READY</text><rect x="376" y="314" width="286" height="108" rx="17" fill="#f8fcfd" stroke="#cfdfe3"/><rect x="396" y="335" width="48" height="48" rx="13" fill="#5f6e7f"/><text x="410" y="369" fill="#fff" font-size="25" font-weight="800">AI</text><text x="462" y="350" fill="#17263a" font-size="19" font-weight="750">Local agents</text><text x="462" y="378" fill="#607587" font-size="14">Generic Agent Skill</text><rect x="571" y="340" width="70" height="28" rx="14" fill="#e9f1f4"/><text x="584" y="360" fill="#526879" font-size="12" font-weight="750">PORTABLE</text></g>
</svg>
